<svg xmlns="http://www.w3.org/2000/svg" viewBox="0 0 720 420" fill="none">
  <rect width="720" height="420" rx="28" fill="#F8FAFC"/>
  <rect x="38" y="44" width="644" height="332" rx="24" fill="#fff"/>
  <rect x="74" y="88" width="170" height="116" rx="20" fill="#D9ECE7"/>
  <rect x="274" y="88" width="170" height="116" rx="20" fill="#E7F2EE"/>
  <rect x="474" y="88" width="170" height="116" rx="20" fill="#FEF3C7"/>
  <rect x="74" y="228" width="270" height="104" rx="20" fill="#1F4C41"/>
  <rect x="374" y="228" width="270" height="104" rx="20" fill="#2F7864"/>
  <circle cx="160" cy="146" r="28" fill="#2F7864"/>
  <path d="M330 122h58v14h-58zM300 150h118v14H300z" fill="#2F7864"/>
  <path d="M540 120h40v40h-40z" fill="#F59E0B"/>
  <circle cx="156" cy="279" r="34" fill="#F59E0B"/>
  <path d="M446 266h126v16H446zM424 298h170v16H424z" fill="#D9ECE7"/>
</svg>
