<svg xmlns="http://www.w3.org/2000/svg" viewBox="0 0 1200 520" fill="none">
  <rect width="1200" height="520" rx="32" fill="#F8FAFC"/>
  <rect x="44" y="42" width="1112" height="436" rx="28" fill="#fff"/>
  <rect x="92" y="106" width="1016" height="20" rx="10" fill="#1F4C41"/>
  <rect x="92" y="234" width="1016" height="20" rx="10" fill="#1F4C41"/>
  <rect x="92" y="362" width="1016" height="20" rx="10" fill="#1F4C41"/>
  <rect x="126" y="70" width="82" height="120" rx="18" fill="#D9ECE7"/>
  <rect x="248" y="86" width="112" height="88" rx="18" fill="#B3D8CE"/>
  <rect x="400" y="76" width="140" height="98" rx="18" fill="#FEF3C7"/>
  <rect x="586" y="82" width="98" height="92" rx="18" fill="#D9ECE7"/>
  <rect x="730" y="74" width="156" height="100" rx="18" fill="#E7F2EE"/>
  <rect x="930" y="86" width="112" height="88" rx="18" fill="#B3D8CE"/>
  <rect x="142" y="214" width="126" height="92" rx="18" fill="#E7F2EE"/>
  <rect x="308" y="214" width="88" height="92" rx="18" fill="#FEF3C7"/>
  <rect x="436" y="206" width="148" height="100" rx="18" fill="#D9ECE7"/>
  <rect x="624" y="222" width="116" height="84" rx="18" fill="#B3D8CE"/>
  <rect x="780" y="210" width="166" height="96" rx="18" fill="#E7F2EE"/>
  <rect x="986" y="218" width="86" height="88" rx="18" fill="#FEF3C7"/>
  <rect x="132" y="334" width="102" height="100" rx="18" fill="#B3D8CE"/>
  <rect x="274" y="346" width="144" height="88" rx="18" fill="#D9ECE7"/>
  <rect x="458" y="334" width="92" height="100" rx="18" fill="#FEF3C7"/>
  <rect x="590" y="340" width="172" height="94" rx="18" fill="#E7F2EE"/>
  <rect x="802" y="336" width="128" height="98" rx="18" fill="#D9ECE7"/>
  <rect x="970" y="348" width="92" height="86" rx="18" fill="#B3D8CE"/>
</svg>
